HIERARCHY
ROOT Hips
{
  OFFSET 0 0 0
  CHANNELS 6 Xposition Yposition Zposition Zrotation Yrotation Xrotation
  JOINT LeftThigh
  {
    OFFSET 8.409438 0 -5.917753
    CHANNELS 3 Zrotation Yrotation Xrotation
    JOINT LeftLeg
    {
      OFFSET 0 0 -42.358652
      CHANNELS 3 Zrotation Yrotation Xrotation
      JOINT LeftFoot
      {
        OFFSET 0 0 -39.357303
        CHANNELS 3 Zrotation Yrotation Xrotation
      }
    }
  }
  JOINT RightThigh
  {
    OFFSET -8.409438 0 -5.917753
    CHANNELS 3 Zrotation Yrotation Xrotation
    JOINT RightLeg
    {
      OFFSET 0 0 -42.358652
      CHANNELS 3 Zrotation Yrotation Xrotation
      JOINT RightFoot
      {
        OFFSET 0 0 -39.357303
        CHANNELS 3 Zrotation Yrotation Xrotation
      }
    }
  }
  JOINT SpineLow
  {
    OFFSET 0 0 4.719101
    CHANNELS 3 Zrotation Yrotation Xrotation
    JOINT SpineMid
    {
      OFFSET 0 0 12.899191
      CHANNELS 3 Zrotation Yrotation Xrotation
      JOINT Chest
      {
        OFFSET 0 0 12.899191
        CHANNELS 3 Zrotation Yrotation Xrotation
        JOINT LeftShoulder
        {
          OFFSET 7.550562 1.41573 9.438202
          CHANNELS 3 Zrotation Yrotation Xrotation
          JOINT LeftArm
          {
            OFFSET 9.155056 0 4.247191
            CHANNELS 3 Zrotation Yrotation Xrotation
            JOINT LeftForearm
            {
              OFFSET 0 0 25.771955
              CHANNELS 3 Zrotation Yrotation Xrotation
              JOINT LeftHand
              {
                OFFSET 0 0 25.197169
                CHANNELS 3 Zrotation Yrotation Xrotation
              }
            }
          }
        }
        JOINT RightShoulder
        {
          OFFSET -7.550562 1.41573 9.438202
          CHANNELS 3 Zrotation Yrotation Xrotation
          JOINT RightArm
          {
            OFFSET -9.155056 0 4.247191
            CHANNELS 3 Zrotation Yrotation Xrotation
            JOINT RightForearm
            {
              OFFSET 0 0 -25.771955
              CHANNELS 3 Zrotation Yrotation Xrotation
              JOINT RightHand
              {
                OFFSET 0 0 -25.197169
                CHANNELS 3 Zrotation Yrotation Xrotation
              }
            }
          }
        }
        JOINT Neck
        {
          OFFSET 0 0 15.101124
          CHANNELS 3 Zrotation Yrotation Xrotation
          JOINT Head
          {
            OFFSET 0 0 11.325843
            CHANNELS 3 Zrotation Yrotation Xrotation
            End Site
            {
              OFFSET 0 0 14.157303
            }
          }
        }
      }
    }
  }
}
MOTION
Frames: 13
Frame Time: 0.0
0.0  93.25843  0.0  -0.26595  10.340919  -89.601835  -4.15631  -14.555066  -5.354812  -3.018829  -4.375292  7.207268  4.86223  0.030774  3.820783  -16.748131  4.68073  -6.454645  -10.195608  6.711957  6.127335  1.570064  0.726535  -0.344598  2.041601  0.29658  -0.028897  5.580416  0.812446  -0.053901  5.580416  0.812446  -0.053901  -34.021878  22.342983  -0.74536  148.64214  46.949581  -145.711415  -18.911607  16.140697  81.059376  86.782176  -17.025322  -9.539193  14.096696  -23.709601  30.861841  105.589113  51.90671  50.113983  26.225035  25.53999  -10.439954  84.73039  -22.905282  34.745941  -18.248571  2.814864  9.081208  -13.729094  1.842304  6.900975  
0.0  93.25843  0.0  -0.285697  11.080063  -89.527917  -4.62702  -14.65594  -5.648727  -3.202056  -4.256886  7.508275  4.840075  0.030063  3.830066  -17.305485  4.680169  -6.479419  -10.43529  6.82727  6.226516  1.560682  0.693162  -0.303451  2.005205  0.310088  -0.044847  5.480728  0.850642  -0.096794  5.480728  0.850642  -0.096794  -34.093174  22.412391  -0.738452  148.434385  47.006406  -145.674726  -19.038436  16.381717  80.963958  86.40155  -17.033108  -9.219779  14.079586  -23.650784  30.692075  105.478086  51.973721  49.900887  26.342826  25.425515  -10.353267  84.648046  -22.756045  35.06758  -18.42066  2.709855  9.393834  -13.858453  1.751499  7.133513  
0.0  93.25843  0.0  -0.338181  11.802649  -89.500211  -5.55521  -14.899325  -6.237018  -3.329862  -4.023973  8.024873  4.992127  0.059698  4.009843  -17.950322  4.639638  -6.529804  -11.058989  7.001966  6.232418  1.890834  0.72756  -0.202707  1.987303  0.317495  -0.0522  5.431697  0.871455  -0.116501  5.431697  0.871455  -0.116501  -34.131036  22.454777  -0.693361  148.127552  47.014492  -145.596035  -19.161437  16.512246  80.805465  86.124761  -17.04094  -8.97276  14.4054  -23.74518  30.660096  104.922923  52.321591  49.710221  26.31422  25.323082  -10.252222  84.62075  -22.576866  35.24222  -18.696409  2.608496  9.709307  -14.065534  1.661534  7.368786  
0.0  93.25843  0.0  -0.375224  12.597406  -89.4582  -6.05991  -15.054206  -6.621325  -3.613319  -3.780391  8.537473  4.998959  0.063517  4.015826  -18.419612  4.661545  -6.552249  -11.382601  7.154764  6.412045  1.832905  0.682753  -0.15052  1.920753  0.330805  -0.081149  5.249374  0.910008  -0.195403  5.249374  0.910008  -0.195402  -34.059213  22.58556  -0.577932  147.910442  47.05989  -145.590862  -19.199376  16.578261  80.676696  86.049215  -17.05244  -8.968715  14.31101  -23.65064  30.507936  104.724253  52.269303  49.337115  26.294438  25.272278  -10.260676  84.626462  -22.435754  35.260166  -18.823683  2.534378  10.122611  -14.162047  1.591141  7.6775  
0.0  93.25843  0.0  -0.415815  13.43217  -89.438957  -6.86603  -15.271151  -7.20709  -3.987936  -3.460256  9.120303  5.211384  0.093983  4.21661  -19.01456  4.63913  -6.645783  -12.064904  7.298641  6.523266  2.012995  0.695584  -0.045139  1.87285  0.342955  -0.100211  5.118139  0.944544  -0.247197  5.118139  0.944544  -0.247197  -33.960575  22.652453  -0.396186  147.424539  47.085311  -145.569802  -19.310607  16.466898  80.470429  86.118895  -17.039604  -9.099391  14.432333  -23.669922  30.476306  104.162238  52.43991  48.980702  26.108734  25.242058  -10.232822  84.670557  -22.252175  35.252405  -19.074176  2.4528  10.526901  -14.35075  1.51314  7.979822  
0.0  93.25843  0.0  -0.474842  14.216517  -89.446193  -7.307153  -15.4718  -7.683914  -4.339245  -3.076707  9.87009  5.244594  0.095818  4.2265  -19.335137  4.651968  -6.675962  -12.370242  7.510541  6.811154  1.984111  0.639789  0.027962  1.803274  0.355352  -0.128374  4.927498  0.980263  -0.324209  4.927498  0.980263  -0.324209  -33.873384  22.791641  -0.192674  147.112522  47.151803  -145.61182  -19.270854  16.284993  80.34166  86.328126  -16.93856  -9.43611  14.153207  -23.531977  30.259713  103.890275  52.26616  48.481133  25.990132  25.275866  -10.331429  84.702146  -22.084635  35.228454  -19.224927  2.385199  10.997591  -14.465098  1.444983  8.331892  
0.0  93.25843  0.0  -0.500411  15.131605  -89.405046  -7.993885  -15.676326  -8.391246  -4.800366  -2.645693  10.668861  5.321976  0.133923  4.300025  -19.882628  4.631581  -6.861172  -12.901858  7.723269  7.125778  2.113824  0.654941  0.115801  1.717252  0.371887  -0.163276  4.69175  1.027511  -0.419674  4.69175  1.027511  -0.419674  -33.774431  22.86183  0.077968  146.823573  47.183484  -145.58223  -19.30684  15.881956  80.103917  86.463769  -16.796499  -9.659209  14.047783  -23.447351  30.165694  103.60404  51.87035  48.036247  25.395984  25.388822  -10.214791  84.729494  -21.774661  35.315233  -19.377772  2.333128  11.493139  -14.581327  1.387428  8.703098  
0.0  93.25843  0.0  -0.570866  15.835363  -89.42485  -8.207485  -15.890738  -9.016887  -5.174874  -2.128356  11.673395  5.310182  0.129666  4.276507  -20.063185  4.607066  -6.985833  -13.206624  8.062517  7.59849  2.085609  0.629055  0.168595  1.652377  0.375689  -0.197037  4.513853  1.039809  -0.512671  4.513853  1.039809  -0.512671  -33.704268  23.017302  0.35028  146.615833  47.204067  -145.569103  -19.259918  15.57874  80.00196  86.779714  -16.416783  -9.984166  13.57772  -23.216257  29.93889  103.261153  51.595578  47.385752  25.122343  25.497901  -10.394555  84.691219  -21.479008  35.480563  -19.542106  2.318138  11.997977  -14.706832  1.356956  9.082478  
0.0  93.25843  0.0  -0.566751  16.659335  -89.382189  -8.572905  -16.029874  -9.81109  -5.700421  -1.621751  12.644514  5.425613  0.201527  4.373209  -20.407108  4.536331  -7.268089  -14.073011  8.419405  7.986031  2.356955  0.71303  0.286902  1.540295  0.390171  -0.242623  4.206625  1.081432  -0.638083  4.206625  1.081432  -0.638084  -33.53875  23.080251  0.689548  146.717544  47.15939  -145.421751  -19.326285  15.282717  79.854735  86.977598  -15.957095  -10.177349  13.576335  -23.133298  29.926269  102.882896  51.176766  46.907815  24.349196  25.727133  -10.442239  84.583157  -21.153569  35.75552  -19.588699  2.35863  12.530876  -14.745187  1.369395  9.484073  
0.0  93.25843  0.0  -0.611191  17.15077  -89.455681  -8.488454  -16.132239  -10.476432  -6.142712  -1.042899  13.800807  5.477071  0.197515  4.36243  -20.287765  4.399689  -7.466957  -14.464138  9.015761  8.581219  2.329049  0.764911  0.35184  1.469555  0.388518  -0.271825  4.012784  1.078022  -0.719147  4.012784  1.078022  -0.719146  -33.311685  23.26212  1.017261  146.756303  47.157342  -145.312846  -19.289623  15.174871  79.822623  87.453176  -15.267113  -10.647095  13.084841  -22.839543  29.711302  102.556431  50.842323  46.247494  23.9104  25.934336  -10.811697  84.429164  -20.893728  36.026017  -19.664744  2.396814  13.021533  -14.805479  1.380751  9.854042  
0.0  93.25843  0.0  -0.422663  17.800181  -89.460573  -8.630575  -15.953446  -11.299175  -6.357278  -0.605879  15.260008  5.456106  0.258576  4.308982  -20.251841  4.353895  -7.739664  -14.963664  9.56325  9.172524  2.342201  0.923072  0.411684  1.354536  0.424033  -0.296256  3.697588  1.175205  -0.785825  3.697587  1.175206  -0.785825  -32.896562  23.226793  1.423458  147.093991  47.19448  -145.132957  -19.17525  15.303299  79.976714  88.161326  -14.312565  -11.34426  13.010468  -22.691888  29.664931  101.929813  50.77799  45.659872  23.342541  26.190621  -11.269137  84.232867  -20.660577  36.31203  -19.67244  2.47626  13.495793  -14.815322  1.425026  10.212628  
0.0  93.25843  0.0  -0.490927  18.012499  -89.518691  -7.985721  -15.874145  -11.976248  -7.021694  -0.153395  16.404846  5.505906  0.279154  4.309436  -19.692276  4.051956  -7.958948  -15.400637  10.305367  9.802435  2.337219  1.058206  0.437453  1.301431  0.415281  -0.326476  3.551981  1.152293  -0.869829  3.551981  1.152293  -0.869829  -32.621276  23.393629  1.786387  147.370554  47.279365  -144.927071  -18.902425  15.182184  80.142635  89.103778  -12.95882  -12.252919  12.391572  -22.272851  29.409404  101.723295  50.345551  45.016248  22.68241  26.474823  -11.892795  84.019047  -20.463481  36.620672  -19.711228  2.525301  13.938593  -14.847827  1.446752  10.546817  
0.0  93.25843  0.0  -0.394557  18.407557  -89.341572  -7.565571  -15.445061  -12.908052  -7.225772  -0.048833  17.975421  5.370976  0.26482  4.164361  -19.252524  3.841386  -8.416825  -15.830612  11.037548  10.494582  2.331436  1.177216  0.443048  1.200458  0.442817  -0.376108  3.274702  1.228686  -1.005891  3.274702  1.228686  -1.005891  -32.482409  23.233148  2.138835  148.266854  47.382264  -144.593264  -18.407219  15.151152  80.679577  90.238752  -11.033109  -13.14501  11.875919  -21.812957  29.13926  101.499848  49.906023  44.322047  21.795601  26.828554  -12.674278  83.809767  -20.319263  36.888718  -19.752562  2.592788  14.35776  -14.882598  1.48299  10.863853  
